HIERARCHY
ROOT joint_Root
{
	OFFSET 0.0 0.0 0.0
	CHANNELS 6 Xposition Yposition Zposition Zrotation Xrotation Yrotation 
	JOINT Hips
	{
		OFFSET -17.1583 93.1646 452.98
		CHANNELS 6 Xposition Yposition Zposition Zrotation Xrotation Yrotation 
		JOINT Spine
		{
			OFFSET 15.7357 0.0 0.0
			CHANNELS 6 Xposition Yposition Zposition Zrotation Xrotation Yrotation 
			JOINT Chest
			{
				OFFSET 8.98455 -0.406207 0.0
				CHANNELS 6 Xposition Yposition Zposition Zrotation Xrotation Yrotation 
				JOINT Neck
				{
					OFFSET 16.3773 0.0 0.0
					CHANNELS 6 Xposition Yposition Zposition Zrotation Xrotation Yrotation 
					JOINT Head
					{
						OFFSET 6.45672 0.0 0.0
						CHANNELS 6 Xposition Yposition Zposition Zrotation Xrotation Yrotation 
						End Site
						{
							OFFSET 0.0 0.0 0.0
						}
					}
				}
				JOINT Shoulder_L
				{
					OFFSET 12.9942 -0.242716 4.98039
					CHANNELS 6 Xposition Yposition Zposition Zrotation Xrotation Yrotation 
					JOINT UpperArm_L
					{
						OFFSET 5.34809 0.0 0.0
						CHANNELS 6 Xposition Yposition Zposition Zrotation Xrotation Yrotation 
						JOINT LowerArm_L
						{
							OFFSET 24.3286 1.87007e-05 0.0
							CHANNELS 6 Xposition Yposition Zposition Zrotation Xrotation Yrotation 
							JOINT Hand_L
							{
								OFFSET 22.2916 0.0 0.0
								CHANNELS 6 Xposition Yposition Zposition Zrotation Xrotation Yrotation 
								End Site
								{
									OFFSET 0.0 0.0 0.0
								}
							}
						}
					}
				}
				JOINT Shoulder_R
				{
					OFFSET 12.9945 -0.242716 -4.98039
					CHANNELS 6 Xposition Yposition Zposition Zrotation Xrotation Yrotation 
					JOINT UpperArm_R
					{
						OFFSET -5.34813 0.0 0.0
						CHANNELS 6 Xposition Yposition Zposition Zrotation Xrotation Yrotation 
						JOINT LowerArm_R
						{
							OFFSET -24.3289 0.000322201 0.0
							CHANNELS 6 Xposition Yposition Zposition Zrotation Xrotation Yrotation 
							JOINT Hand_R
							{
								OFFSET -22.2915 -0.000108084 0.0
								CHANNELS 6 Xposition Yposition Zposition Zrotation Xrotation Yrotation 
								End Site
								{
									OFFSET 0.0 0.0 0.0
								}
							}
						}
					}
				}
			}
		}
		JOINT UpperLeg_L
		{
			OFFSET -2.19248 -6.46944 0.0
			CHANNELS 6 Xposition Yposition Zposition Zrotation Xrotation Yrotation 
			JOINT LowerLeg_L
			{
				OFFSET 39.0811 0.0 -1.23785e-05
				CHANNELS 6 Xposition Yposition Zposition Zrotation Xrotation Yrotation 
				JOINT Foot_L
				{
					OFFSET 40.9854 0.0 -1.26872e-05
					CHANNELS 6 Xposition Yposition Zposition Zrotation Xrotation Yrotation 
					JOINT Toes_L
					{
						OFFSET 11.7543 0.0 0.0
						CHANNELS 6 Xposition Yposition Zposition Zrotation Xrotation Yrotation 
						End Site
						{
							OFFSET 0.0 0.0 0.0
						}
					}
				}
			}
		}
		JOINT UpperLeg_R
		{
			OFFSET -2.19251 6.46944 0.0
			CHANNELS 6 Xposition Yposition Zposition Zrotation Xrotation Yrotation 
			JOINT LowerLeg_R
			{
				OFFSET -39.0811 -0.00228153 -0.0401928
				CHANNELS 6 Xposition Yposition Zposition Zrotation Xrotation Yrotation 
				JOINT Foot_R
				{
					OFFSET -40.9854 0.0 0.0
					CHANNELS 6 Xposition Yposition Zposition Zrotation Xrotation Yrotation 
					JOINT Toes_R
					{
						OFFSET -11.7543 0.0 0.0
						CHANNELS 6 Xposition Yposition Zposition Zrotation Xrotation Yrotation 
						End Site
						{
							OFFSET 0.0 0.0 0.0
						}
					}
				}
			}
		}
	}
}
MOTION
Frames:	8
Frame Time:	0.0333333
0.000000 0.000000 0.000000 0.000000 0.000000 -0.000000 -4.569370 91.667900 -2.580000 83.642900 -0.471771 8.440810 15.735700 0.000005 -0.000001 74.532400 86.281200 -72.751000 8.984550 -0.406207 -0.000000 -0.562305 -2.112540 3.550990 16.377300 -0.000001 -0.000001 11.790300 2.870160 4.964760 6.456720 -0.000001 -0.000000 -6.210050 2.112380 14.396100 12.994200 -0.242716 4.980390 -92.947900 8.046280 -69.801500 5.348090 -0.000007 -0.000001 -72.029800 24.860000 1.344330 24.328600 0.000019 0.000005 10.667700 26.333600 -23.007800 22.291600 -0.000001 0.000005 -1.947210 4.975890 7.828100 12.994500 -0.242716 -4.980390 87.056800 6.889510 -66.799800 -5.348130 -0.000001 -0.000004 -69.624400 -1.713560 -14.984800 -24.328900 0.000322 -0.000009 13.297600 -15.965100 -139.327000 -22.291500 -0.000108 -0.000004 48.628600 5.681240 -20.171500 -2.192480 -6.469440 -0.000000 -172.194000 8.711550 -1.718490 39.081100 -0.000007 -0.000012 0.413772 -0.701646 30.529600 40.985400 -0.000006 -0.000013 -2.291270 0.296208 -76.469500 11.754300 -0.000000 0.000003 0.000516 0.158427 -10.151500 -2.192510 6.469440 -0.000001 -169.509000 10.106000 -174.358000 -39.081100 -0.002282 -0.040193 0.152627 -0.472160 17.547700 -40.985400 0.000008 0.000006 6.950660 3.910790 -71.533300 -11.754300 -0.000006 -0.000006 -0.010743 0.276777 -5.327110
0.000000 0.000000 0.000000 0.000000 0.000000 -0.000000 -4.573600 91.670700 -2.615820 83.666800 -0.458853 8.381280 15.735700 0.000005 -0.000001 74.911400 86.275900 -73.130000 8.984550 -0.406207 -0.000000 -0.539913 -2.067490 3.551490 16.377300 -0.000001 -0.000001 11.862300 2.876700 4.889200 6.456720 -0.000001 -0.000000 -6.158690 2.133060 14.263600 12.994200 -0.242716 4.980390 -92.952300 8.056740 -69.798000 5.348090 -0.000007 -0.000001 -72.049000 24.682400 1.320990 24.328600 0.000019 0.000005 10.738800 26.389700 -23.107500 22.291600 -0.000001 0.000005 -1.852320 4.972780 7.892990 12.994500 -0.242716 -4.980390 87.058300 6.889430 -66.810300 -5.348130 -0.000001 -0.000004 -69.555600 -1.667100 -14.959900 -24.328900 0.000322 -0.000009 13.355600 -15.955300 -139.183000 -22.291500 -0.000108 -0.000004 48.556900 5.681350 -20.239800 -2.192480 -6.469440 -0.000000 -172.207000 8.733690 -1.801650 39.081100 -0.000007 -0.000012 0.410698 -0.697136 30.504200 40.985400 -0.000006 -0.000013 -2.296580 0.279594 -76.335200 11.754300 -0.000000 0.000003 0.000761 0.153654 -10.345200 -2.192510 6.469440 -0.000001 -169.502000 10.066900 -174.435000 -39.081100 -0.002282 -0.040193 0.154406 -0.478388 17.526900 -40.985400 0.000008 0.000006 7.079000 3.887000 -71.512100 -11.754300 -0.000006 -0.000006 -0.010360 0.273978 -5.441630
0.000000 0.000000 0.000000 0.000000 0.000000 -0.000000 -4.583150 91.681800 -2.654620 83.697900 -0.361895 8.398070 15.735700 0.000005 -0.000001 75.003400 86.238400 -73.218300 8.984550 -0.406207 -0.000000 -0.464062 -2.074430 3.560110 16.377300 -0.000001 -0.000001 11.905600 2.887290 4.791440 6.456720 -0.000001 -0.000000 -6.122320 2.112900 14.102800 12.994200 -0.242716 4.980390 -92.972100 8.090010 -69.749600 5.348090 -0.000007 -0.000001 -72.019700 24.581900 1.245580 24.328600 0.000019 0.000005 10.792600 26.467500 -23.156700 22.291600 -0.000001 0.000005 -1.903270 4.971660 7.916330 12.994500 -0.242716 -4.980390 87.036100 6.921390 -66.749500 -5.348130 -0.000001 -0.000004 -69.407000 -1.524540 -14.980300 -24.328900 0.000322 -0.000009 13.272000 -15.829800 -139.149000 -22.291500 -0.000108 -0.000004 48.301300 5.680530 -19.806200 -2.192480 -6.469440 -0.000000 -172.235000 8.780810 -1.803850 39.081100 -0.000007 -0.000012 0.409755 -0.696654 30.464000 40.985400 -0.000006 -0.000013 -2.301020 0.305908 -76.389500 11.754300 -0.000000 0.000003 0.000445 0.159763 -10.097300 -2.192510 6.469440 -0.000001 -169.540000 10.125100 -174.447000 -39.081100 -0.002282 -0.040193 0.151788 -0.470313 17.519400 -40.985400 0.000008 0.000006 6.972370 3.820650 -71.494200 -11.754300 -0.000006 -0.000006 -0.010415 0.274383 -5.425100
0.000000 0.000000 0.000000 0.000000 0.000000 -0.000000 -4.567500 91.689400 -2.689940 83.729500 -0.356608 8.362670 15.735700 0.000005 -0.000001 75.002300 86.213900 -73.205000 8.984550 -0.406207 -0.000000 -0.416219 -2.087400 3.585370 16.377300 -0.000001 -0.000001 11.973300 2.891140 4.659980 6.456720 -0.000001 -0.000000 -6.075990 2.109320 13.939100 12.994200 -0.242716 4.980390 -92.992100 8.123360 -69.700100 5.348090 -0.000007 -0.000001 -72.011100 24.546400 1.285320 24.328600 0.000019 0.000005 10.726800 26.213500 -23.212500 22.291600 -0.000001 0.000005 -1.897430 4.970910 7.932060 12.994500 -0.242716 -4.980390 87.031400 6.935070 -66.757100 -5.348130 -0.000001 -0.000004 -69.349700 -1.654890 -15.008400 -24.328900 0.000322 -0.000009 13.241500 -15.719400 -139.023000 -22.291500 -0.000108 -0.000004 47.660900 5.680320 -19.715400 -2.192480 -6.469440 -0.000000 -172.255000 8.732760 -1.852570 39.081100 -0.000007 -0.000012 0.407175 -0.693394 30.423300 40.985400 -0.000006 -0.000013 -2.267840 0.386361 -76.307900 11.754300 -0.000000 0.000003 0.000562 0.157562 -10.186600 -2.192510 6.469440 -0.000001 -169.540000 10.000500 -174.511000 -39.081100 -0.002282 -0.040193 0.154664 -0.479455 17.518400 -40.985400 0.000008 0.000006 7.027090 3.758930 -71.502400 -11.754300 -0.000006 -0.000006 -0.010807 0.277236 -5.308320
0.000000 0.000000 0.000000 0.000000 0.000000 -0.000000 -4.550710 91.700400 -2.727290 83.763800 -0.300729 8.330730 15.735700 0.000005 -0.000001 75.190500 86.183900 -73.385600 8.984550 -0.406207 -0.000000 -0.351889 -2.078190 3.601780 16.377300 -0.000001 -0.000001 12.020800 2.851050 4.580890 6.456720 -0.000001 -0.000000 -6.075660 2.103310 13.722000 12.994200 -0.242716 4.980390 -93.001700 8.143130 -69.685400 5.348090 -0.000007 -0.000001 -71.990700 24.488500 1.211180 24.328600 0.000019 0.000005 10.691200 26.221500 -23.136300 22.291600 -0.000001 0.000005 -1.757680 4.969240 7.966780 12.994500 -0.242716 -4.980390 87.026700 6.916780 -66.669400 -5.348130 -0.000001 -0.000004 -69.255600 -1.788100 -15.027700 -24.328900 0.000322 -0.000009 13.452600 -15.824200 -138.742000 -22.291500 -0.000108 -0.000004 47.574000 5.680040 -19.603700 -2.192480 -6.469440 -0.000000 -172.286000 8.703560 -1.902420 39.081100 -0.000007 -0.000012 0.407245 -0.694739 30.379100 40.985400 -0.000006 -0.000013 -2.245440 0.431681 -76.280900 11.754300 -0.000000 0.000003 0.000498 0.158771 -10.137500 -2.192510 6.469440 -0.000001 -169.585000 10.060800 -174.569000 -39.081100 -0.002282 -0.040193 0.154458 -0.479447 17.496200 -40.985400 0.000008 0.000006 7.057840 3.763980 -71.480000 -11.754300 -0.000006 -0.000006 -0.010967 0.278392 -5.261010
0.000000 0.000000 0.000000 0.000000 0.000000 -0.000000 -4.523590 91.721300 -2.784170 83.799000 -0.231040 8.244070 15.735700 0.000005 -0.000001 75.075200 86.168600 -73.248400 8.984550 -0.406207 -0.000000 -0.325449 -2.102020 3.645950 16.377300 -0.000001 -0.000001 12.056300 2.847680 4.436860 6.456720 -0.000001 -0.000000 -6.073740 2.125180 13.507600 12.994200 -0.242716 4.980390 -93.026000 8.191640 -69.644800 5.348090 -0.000007 -0.000001 -71.973800 24.389200 1.221110 24.328600 0.000019 0.000005 10.704500 26.234900 -23.152800 22.291600 -0.000001 0.000005 -1.668950 4.968820 7.975580 12.994500 -0.242716 -4.980390 87.044600 6.859810 -66.623700 -5.348130 -0.000001 -0.000004 -69.124600 -1.944030 -14.985800 -24.328900 0.000322 -0.000009 13.417300 -15.686800 -138.578000 -22.291500 -0.000108 -0.000004 47.319800 5.679550 -19.424900 -2.192480 -6.469440 -0.000000 -172.316000 8.656930 -1.999610 39.081100 -0.000007 -0.000012 0.410890 -0.703302 30.295700 40.985400 -0.000006 -0.000013 -2.203470 0.516019 -76.235300 11.754300 -0.000000 0.000003 0.000483 0.159054 -10.126100 -2.192510 6.469440 -0.000001 -169.629000 10.080800 -174.672000 -39.081100 -0.002282 -0.040193 0.152381 -0.474448 17.441100 -40.985400 0.000008 0.000006 7.004590 3.749550 -71.434900 -11.754300 -0.000006 -0.000006 -0.010660 0.276172 -5.351880
0.000000 0.000000 0.000000 0.000000 0.000000 -0.000000 -4.478420 91.734300 -2.810260 83.848000 -0.255328 8.207480 15.735700 0.000005 -0.000001 75.404200 86.118400 -73.549200 8.984550 -0.406207 -0.000000 -0.216551 -2.085040 3.704220 16.377300 -0.000001 -0.000001 12.055500 2.843370 4.298580 6.456720 -0.000001 -0.000000 -6.089820 2.126840 13.214600 12.994200 -0.242716 4.980390 -93.056500 8.273100 -69.640400 5.348090 -0.000007 -0.000001 -71.967400 24.084800 1.241920 24.328600 0.000019 0.000005 10.728400 26.240400 -23.195900 22.291600 -0.000001 0.000005 -1.570150 4.971410 7.921640 12.994500 -0.242716 -4.980390 87.078400 6.776100 -66.609500 -5.348130 -0.000001 -0.000004 -69.025200 -2.205990 -14.937200 -24.328900 0.000322 -0.000009 13.390300 -15.531000 -138.360000 -22.291500 -0.000108 -0.000004 46.984500 5.678510 -19.101600 -2.192480 -6.469440 -0.000000 -172.361000 8.547700 -2.023200 39.081100 -0.000007 -0.000012 0.403143 -0.692311 30.213900 40.985400 -0.000006 -0.000013 -2.152230 0.587619 -76.103500 11.754300 -0.000000 0.000003 0.000582 0.157172 -10.202400 -2.192510 6.469440 -0.000001 -169.684000 10.035200 -174.743000 -39.081100 -0.002282 -0.040193 0.151973 -0.472878 17.450600 -40.985400 0.000008 0.000006 6.930190 3.694200 -71.346800 -11.754300 -0.000006 -0.000006 -0.010493 0.274952 -5.401780
0.000000 0.000000 0.000000 0.000000 0.000000 -0.000000 -4.424530 91.763300 -2.865260 83.903500 -0.204912 8.132140 15.735700 0.000005 -0.000001 75.557800 86.069300 -73.690500 8.984550 -0.406207 -0.000000 -0.115921 -2.088560 3.730560 16.377300 -0.000001 -0.000001 11.967500 2.820930 4.173020 6.456720 -0.000001 -0.000000 -6.100270 2.143640 12.944900 12.994200 -0.242716 4.980390 -93.070000 8.301130 -69.621000 5.348090 -0.000007 -0.000001 -71.929900 23.975700 1.187610 24.328600 0.000019 0.000005 10.684300 26.125600 -23.193100 22.291600 -0.000001 0.000005 -1.579950 4.965800 8.038440 12.994500 -0.242716 -4.980390 87.083500 6.730920 -66.506900 -5.348130 -0.000001 -0.000004 -68.889500 -2.411780 -14.864400 -24.328900 0.000322 -0.000009 13.369800 -15.301300 -137.991000 -22.291500 -0.000108 -0.000004 46.947800 5.677730 -18.887100 -2.192480 -6.469440 -0.000000 -172.431000 8.494870 -2.083020 39.081100 -0.000007 -0.000012 0.400530 -0.691540 30.079800 40.985400 -0.000006 -0.000013 -2.104140 0.625179 -76.020800 11.754300 -0.000000 0.000003 0.000606 0.156717 -10.220900 -2.192510 6.469440 -0.000001 -169.766000 9.948690 -174.832000 -39.081100 -0.002282 -0.040193 0.149030 -0.464788 17.405600 -40.985400 0.000008 0.000006 6.815210 3.678720 -71.310600 -11.754300 -0.000006 -0.000006 -0.010837 0.277454 -5.299420
